# xmcd
#
# Track frame offsets:
#	150
#	7470
#	27212
#	45206
#	69652
#	87480
#	103856
#	124126
#	139092
#	152861
#	172829
#	194045
#	211285
#	218398
#
# Disc length: 3129 seconds
#
# Revision: 1
# Processed by: cddbd v1.5.2PL0 Copyright (c) Steve Scherf et al.
# Submitted via: audiograbber 1.83.01
#
DISCID=c60c370e
DTITLE=Harry Belafonte - American Wintertime
DYEAR=2006
DGENRE=
TTITLE0=Christmas Is Coming
TTITLE1=Mary's Boy Child
TTITLE2=Swing Low
TTITLE3=The First Noel
TTITLE4=Michael Row The Boat Ashore
TTITLE5=Goin' Down Jordan
TTITLE6=Joy To The World
TTITLE7=Oh Freedom
TTITLE8=I Heard The Bells On Christmas Day
TTITLE9=My Lord What A Mornin'
TTITLE10=Buked And Scorned
TTITLE11=The Twelve Days Of Christmas
TTITLE12=Stars Shinin' (By 'N By)
TTITLE13=Silent Night
EXTD=
EXTT0=
EXTT1=
EXTT2=
EXTT3=
EXTT4=
EXTT5=
EXTT6=
EXTT7=
EXTT8=
EXTT9=
EXTT10=
EXTT11=
EXTT12=
EXTT13=
PLAYORDER=
